<svg width="334" height="178" viewBox="0 0 334 178" fill="none" xmlns="http://www.w3.org/2000/svg">
<g clip-path="url(#clip0_1518_16261)">
<mask id="mask0_1518_16261" style="mask-type:luminance" maskUnits="userSpaceOnUse" x="149" y="11" width="185" height="102">
<path d="M334 11.9736H149.52V112.724H334V11.9736Z" fill="white"/>
</mask>
<g mask="url(#mask0_1518_16261)">
<path d="M210.137 83.8969V107.718C210.137 108.177 210.137 108.678 210.011 109.137C209.844 109.804 209.511 110.472 209.01 110.972C208.509 111.515 207.925 111.932 207.216 112.182C206.173 112.599 204.963 112.641 203.879 112.349C202.794 112.015 201.834 111.348 201.209 110.472C200.792 109.846 200.541 109.095 200.541 108.344V100.418C200.541 100.125 200.541 99.7917 200.458 99.4997C200.458 99.4163 200.374 99.2911 200.333 99.2077C200.249 99.1243 200.166 99.0825 200.041 99.0408C199.915 99.0408 199.79 99.0408 199.665 99.0408C199.54 99.0408 199.415 99.1243 199.331 99.2077C199.29 99.2077 199.248 99.2911 199.206 99.3746L198.914 99.7917C196.828 102.837 194.158 105.424 191.029 107.468C188.985 108.845 186.732 109.971 184.396 110.805C182.686 111.39 180.892 111.848 179.098 112.099C177.429 112.349 175.76 112.433 174.05 112.391C173.215 112.391 172.381 112.391 171.547 112.349C167.417 112.14 163.37 111.014 159.782 109.095C155.193 106.592 151.772 102.503 150.395 97.6641C149.811 95.9119 149.519 94.118 149.478 92.2824C149.478 91.156 149.478 89.9879 149.478 88.8197C149.686 84.7313 151.105 80.768 153.649 77.4305C155.068 75.5949 156.82 74.0096 158.823 72.7163C161.034 71.2979 163.412 70.1715 165.915 69.3371C167.917 68.6279 170.003 68.0855 172.131 67.6683C173.883 67.3346 175.677 67.0426 177.429 66.834C178.681 66.6671 179.932 66.5002 181.184 66.2916C182.435 66.1248 183.603 65.9579 184.813 65.8327L188.568 65.2904L190.362 65.0401L194.534 64.456L198.288 63.9554C198.622 63.9137 198.998 63.8719 199.331 63.7885C199.665 63.7468 199.999 63.5382 200.249 63.2879C200.5 63.0376 200.583 62.7038 200.583 62.3284C200.583 61.6191 200.583 60.9099 200.5 60.2007C200.5 59.7835 200.416 59.3246 200.374 58.8657C200.124 55.9871 199.373 53.1502 198.163 50.522C197.412 48.8949 196.369 47.3931 195.118 46.1415C193.407 44.4727 191.28 43.2629 188.943 42.5954C187.775 42.2617 186.565 42.0113 185.356 41.8862C184.104 41.761 182.852 41.6776 181.601 41.761C180.391 41.8027 179.181 41.9279 177.971 42.0948C176.219 42.3451 174.509 42.6788 172.84 43.1377C169.795 43.9304 166.874 45.0985 164.121 46.6004C163.704 46.8507 163.203 47.0176 162.744 47.101C161.868 47.2679 160.992 47.1427 160.199 46.7673C159.407 46.3918 158.781 45.8077 158.405 45.0568C158.03 44.3059 157.905 43.4715 158.072 42.6371C158.238 41.8445 158.697 41.0935 159.365 40.5512C159.657 40.3426 159.949 40.134 160.241 39.9671C163.954 37.8395 167.959 36.2959 172.131 35.3363C173.925 34.9192 175.677 34.5854 177.512 34.3351C178.597 34.2099 179.765 34.0848 180.85 34.0013C181.935 33.9179 183.27 33.8762 184.521 33.8345H185.481C186.857 33.8345 188.276 34.0013 189.653 34.2099C191.238 34.4185 192.823 34.794 194.367 35.2529C196.787 36.0038 199.081 37.1303 201.125 38.6321C203.295 40.2174 205.047 42.2199 206.34 44.4727C207.467 46.4335 208.301 48.5612 208.885 50.7306C209.302 52.3993 209.636 54.0263 209.803 55.7368C210.053 57.9062 210.178 60.1173 210.178 62.3284V83.8969H210.137ZM200.583 77.0968V72.8415C200.541 72.5077 200.333 72.174 200.082 71.9654C199.79 71.7151 199.457 71.6316 199.123 71.5899C198.789 71.5899 198.414 71.5899 198.038 71.6733C197.704 71.6733 197.329 71.7568 196.995 71.7985L194.951 72.0488C193.699 72.2157 192.448 72.3826 191.196 72.5494C189.945 72.7163 188.61 72.8832 187.358 73.0083C186.065 73.1752 184.813 73.3838 183.52 73.5507L178.931 74.1765C176.97 74.4685 174.968 74.8022 173.007 75.2612C171.463 75.5949 169.961 76.0538 168.501 76.5962C167.166 77.0968 165.873 77.806 164.663 78.6404C162.494 80.1422 160.95 82.2699 160.199 84.6896C159.74 86.108 159.49 87.5265 159.448 88.9866V90.8222C159.448 91.9904 159.615 93.1168 159.907 94.2432C160.742 97.4138 162.828 100.167 165.748 101.919C168.334 103.421 171.255 104.297 174.258 104.423C175.218 104.464 176.177 104.423 177.137 104.423C178.555 104.423 180.016 104.256 181.392 103.922C186.273 102.921 190.654 100.418 193.908 96.8297C195.869 94.6603 197.412 92.1989 198.455 89.4872C199.749 86.3166 200.416 82.9791 200.458 79.5999V77.0133L200.583 77.0968Z" fill="#F2776A"/>
<path d="M222.527 73.9681V39.8005C222.527 39.133 222.694 38.5072 223.069 37.9648C223.528 37.2556 224.154 36.6298 224.947 36.2126C225.739 35.8372 226.615 35.6286 227.491 35.6703C228.367 35.6703 229.244 36.0041 229.995 36.4212C230.745 36.8801 231.33 37.5476 231.705 38.2986C231.955 38.8409 232.08 39.3833 232.08 39.9673V107.426C232.08 107.969 232.08 108.511 231.955 109.053C231.788 109.763 231.413 110.43 230.871 110.973C230.328 111.515 229.661 111.932 228.952 112.141C228.159 112.433 227.324 112.516 226.448 112.391C225.614 112.266 224.821 111.932 224.196 111.39C223.653 111.014 223.236 110.514 222.944 109.971C222.652 109.387 222.485 108.761 222.527 108.136V73.9681Z" fill="#F2776A"/>
<path d="M219.94 18.8991C219.94 17.3555 220.441 15.8537 221.442 14.6438C222.443 13.434 223.862 12.5579 225.447 12.1824C226.198 12.0155 227.032 11.9738 227.783 12.0155C229.244 12.099 230.662 12.5996 231.83 13.434C232.998 14.2683 233.874 15.4782 234.333 16.7715C234.75 17.8979 234.834 19.1077 234.584 20.2758C234.333 21.444 233.749 22.5286 232.915 23.4465C231.955 24.5311 230.704 25.3238 229.285 25.6575C228.326 25.9079 227.325 25.9913 226.282 25.8661C225.28 25.741 224.321 25.449 223.445 24.9483C222.569 24.4477 221.818 23.8219 221.234 23.0293C220.316 21.8194 219.857 20.3593 219.94 18.8991Z" fill="#F3776A"/>
<path d="M268.918 35.7115C270.42 35.0858 272.214 34.5434 274.133 34.0428C277.012 33.3336 279.723 35.7115 279.39 38.6736C279.181 40.5092 277.804 42.0111 276.011 42.3448C274.217 42.7203 272.423 43.1792 270.754 43.8467C267.375 44.9314 264.371 46.9339 262.16 49.5621C260.825 51.1892 259.657 52.9831 258.781 54.8604C257.529 57.5304 256.57 60.3256 255.944 63.2042C255.61 64.6226 255.36 66.041 255.151 67.5012C255.026 68.419 254.943 69.2951 254.859 70.2129C254.859 70.4215 254.859 70.6301 254.817 70.8387C254.692 71.5896 254.651 72.2988 254.692 73.0498V107.76C254.692 108.344 254.692 108.886 254.484 109.47C254.233 110.305 253.733 111.014 253.065 111.598C252.398 112.14 251.522 112.516 250.646 112.641C249.728 112.766 248.768 112.641 247.892 112.307C247.266 112.057 246.641 111.64 246.223 111.181C245.764 110.68 245.431 110.096 245.264 109.428C245.18 109.178 245.139 108.886 245.139 108.636V74.2596V40.0086C245.139 39.0073 245.556 38.0478 246.223 37.2968C246.891 36.5459 247.85 36.0036 248.852 35.8367C249.519 35.6698 250.228 35.6698 250.938 35.8367C251.605 35.9618 252.273 36.2539 252.857 36.6293C253.441 37.0048 253.9 37.5054 254.233 38.0895C254.567 38.6736 254.734 39.3411 254.734 40.0086V50.48C254.734 50.8137 254.734 51.1892 254.776 51.4812C254.776 51.5229 254.776 51.5646 254.859 51.6064C254.859 51.6064 254.943 51.6481 254.984 51.6481C255.026 51.6481 255.109 51.6481 255.151 51.6481C255.151 51.6481 255.235 51.6064 255.276 51.5646C255.401 51.2726 255.568 51.0223 255.652 50.7303C256.111 49.4787 256.653 48.2689 257.279 47.059C258.28 45.0565 259.532 43.1792 261.034 41.5104C263.203 39.049 265.915 37.0883 269.043 35.8367L268.918 35.7115Z" fill="#F2776A"/>
<path d="M333.624 55.6953C333.457 53.9848 333.123 52.3578 332.706 50.689C332.164 48.5196 331.288 46.4337 330.161 44.4312C328.868 42.1784 327.074 40.1759 324.947 38.5906C322.944 37.1304 320.65 35.9623 318.188 35.2114C316.645 34.7525 315.059 34.377 313.474 34.1684C308.134 33.3758 299.123 33.0837 291.738 33.4592C289.861 33.5426 288.318 35.0028 288.067 36.8801C287.733 39.2998 289.694 41.4692 292.156 41.3023C297.12 40.9686 303.169 41.2189 309.177 41.8029C310.387 41.9281 311.597 42.1784 312.765 42.5122C315.101 43.1797 317.27 44.3895 318.939 46.0582C320.232 47.3515 321.234 48.8534 321.985 50.4387C323.194 53.1087 323.945 55.9039 324.196 58.7825C324.196 59.1996 324.321 59.6585 324.321 60.1174C324.321 60.8267 324.404 61.5359 324.404 62.2451C324.404 62.5789 324.279 62.9126 324.07 63.2046C323.82 63.4549 323.528 63.6635 323.153 63.7053C322.819 63.7887 322.443 63.8304 322.11 63.8721L318.355 64.3728L314.183 64.9568L312.389 65.2071L308.635 65.7495C307.425 65.9164 306.257 66.0415 305.005 66.2084C303.753 66.3753 302.502 66.5838 301.25 66.7507C299.456 67.001 297.704 67.2513 295.952 67.5851C293.824 68.0023 291.78 68.5446 289.736 69.2538C287.233 70.0882 284.855 71.2146 282.644 72.6331C280.683 73.9263 278.889 75.5117 277.471 77.3473C274.926 80.6848 273.507 84.648 273.299 88.7365C273.215 89.8629 273.299 91.031 273.299 92.1991C273.299 94.0348 273.633 95.8287 274.217 97.5808C275.635 102.42 279.014 106.509 283.603 109.012C287.191 110.931 291.238 112.057 295.368 112.266C296.202 112.308 296.995 112.308 297.871 112.308C299.54 112.308 301.25 112.266 302.919 112.016C304.713 111.723 306.507 111.306 308.217 110.722C310.554 109.888 312.806 108.761 314.851 107.385C317.98 105.341 320.65 102.754 322.735 99.7085L323.027 99.2913C323.027 99.2913 323.111 99.1662 323.153 99.1244C323.236 99.041 323.361 98.9993 323.486 98.9576C323.612 98.9576 323.737 98.9576 323.862 98.9576C323.945 98.9576 324.07 99.041 324.154 99.1244C324.237 99.2079 324.279 99.2913 324.279 99.4165C324.321 99.7085 324.362 100.042 324.362 100.334V108.261C324.362 109.012 324.613 109.763 325.03 110.388C325.656 111.306 326.615 111.974 327.7 112.266C328.785 112.6 329.953 112.516 331.037 112.099C331.705 111.849 332.331 111.431 332.831 110.889C333.332 110.347 333.666 109.721 333.833 109.053C333.916 108.595 334 108.094 333.958 107.635V83.8137V62.2034C333.958 59.9923 333.833 57.8229 333.582 55.6118L333.624 55.6953ZM324.362 79.6418C324.362 83.021 323.653 86.3585 322.36 89.5291C321.317 92.1991 319.773 94.7022 317.813 96.8716C314.559 100.459 310.178 102.921 305.297 103.964C303.92 104.298 302.46 104.464 301.042 104.464C300.082 104.464 299.123 104.506 298.163 104.464C295.159 104.339 292.197 103.463 289.653 101.961C286.732 100.209 284.646 97.4557 283.812 94.2851C283.478 93.2004 283.311 92.0323 283.353 90.8641V89.0285C283.353 87.5684 283.645 86.1082 284.104 84.7315C284.813 82.2701 286.398 80.1424 288.568 78.6823C289.736 77.8479 291.029 77.1804 292.406 76.6381C293.866 76.0957 295.368 75.6368 296.912 75.3031C298.831 74.8441 300.833 74.4687 302.836 74.2184L307.425 73.5926C308.718 73.4257 309.97 73.2171 311.263 73.0502C312.556 72.8834 313.849 72.7165 315.101 72.5913C316.352 72.4245 317.604 72.2576 318.856 72.0907L320.9 71.8404C321.234 71.8404 321.609 71.757 321.943 71.7152C322.277 71.7152 322.652 71.6318 323.027 71.6318C323.403 71.6318 323.737 71.757 323.987 72.0073C324.279 72.2576 324.446 72.5496 324.488 72.8834V79.7252L324.362 79.6418Z" fill="#F2776A"/>
<path d="M210.137 83.8969V107.718C210.137 108.177 210.137 108.678 210.011 109.137C209.844 109.804 209.511 110.472 209.01 110.972C208.509 111.515 207.925 111.932 207.216 112.182C206.173 112.599 204.963 112.641 203.879 112.349C202.794 112.015 201.834 111.348 201.209 110.472C200.792 109.846 200.541 109.095 200.541 108.344V100.418C200.541 100.125 200.541 99.7917 200.458 99.4997C200.458 99.4163 200.374 99.2911 200.333 99.2077C200.249 99.1243 200.166 99.0825 200.041 99.0408C199.915 99.0408 199.79 99.0408 199.665 99.0408C199.54 99.0408 199.415 99.1243 199.331 99.2077C199.29 99.2077 199.248 99.2911 199.206 99.3746L198.914 99.7917C196.828 102.837 194.158 105.424 191.029 107.468C188.985 108.845 186.732 109.971 184.396 110.805C182.686 111.39 180.892 111.848 179.098 112.099C177.429 112.349 175.76 112.433 174.05 112.391C173.215 112.391 172.381 112.391 171.547 112.349C167.417 112.14 163.37 111.014 159.782 109.095C155.193 106.592 151.772 102.503 150.395 97.6641C149.811 95.9119 149.519 94.118 149.478 92.2824C149.478 91.156 149.478 89.9879 149.478 88.8197C149.686 84.7313 151.105 80.768 153.649 77.4305C155.068 75.5949 156.82 74.0096 158.823 72.7163C161.034 71.2979 163.412 70.1715 165.915 69.3371C167.917 68.6279 170.003 68.0855 172.131 67.6683C173.883 67.3346 175.677 67.0426 177.429 66.834C178.681 66.6671 179.932 66.5002 181.184 66.2916C182.435 66.1248 183.603 65.9579 184.813 65.8327L188.568 65.2904L190.362 65.0401L194.534 64.456L198.288 63.9554C198.622 63.9137 198.998 63.8719 199.331 63.7885C199.665 63.7468 199.999 63.5382 200.249 63.2879C200.5 63.0376 200.583 62.7038 200.583 62.3284C200.583 61.6191 200.583 60.9099 200.5 60.2007C200.5 59.7835 200.416 59.3246 200.374 58.8657C200.124 55.9871 199.373 53.1502 198.163 50.522C197.412 48.8949 196.369 47.3931 195.118 46.1415C193.407 44.4727 191.28 43.2629 188.943 42.5954C187.775 42.2617 186.565 42.0113 185.356 41.8862C184.104 41.761 182.852 41.6776 181.601 41.761C180.391 41.8027 179.181 41.9279 177.971 42.0948C176.219 42.3451 174.509 42.6788 172.84 43.1377C169.795 43.9304 166.874 45.0985 164.121 46.6004C163.704 46.8507 163.203 47.0176 162.744 47.101C161.868 47.2679 160.992 47.1427 160.199 46.7673C159.407 46.3918 158.781 45.8077 158.405 45.0568C158.03 44.3059 157.905 43.4715 158.072 42.6371C158.238 41.8445 158.697 41.0935 159.365 40.5512C159.657 40.3426 159.949 40.134 160.241 39.9671C163.954 37.8395 167.959 36.2959 172.131 35.3363C173.925 34.9192 175.677 34.5854 177.512 34.3351C178.597 34.2099 179.765 34.0848 180.85 34.0013C181.935 33.9179 183.27 33.8762 184.521 33.8345H185.481C186.857 33.8345 188.276 34.0013 189.653 34.2099C191.238 34.4185 192.823 34.794 194.367 35.2529C196.787 36.0038 199.081 37.1303 201.125 38.6321C203.295 40.2174 205.047 42.2199 206.34 44.4727C207.467 46.4335 208.301 48.5612 208.885 50.7306C209.302 52.3993 209.636 54.0263 209.803 55.7368C210.053 57.9062 210.178 60.1173 210.178 62.3284V83.8969H210.137ZM200.583 77.0968V72.8415C200.541 72.5077 200.333 72.174 200.082 71.9654C199.79 71.7151 199.457 71.6316 199.123 71.5899C198.789 71.5899 198.414 71.5899 198.038 71.6733C197.704 71.6733 197.329 71.7568 196.995 71.7985L194.951 72.0488C193.699 72.2157 192.448 72.3826 191.196 72.5494C189.945 72.7163 188.61 72.8832 187.358 73.0083C186.065 73.1752 184.813 73.3838 183.52 73.5507L178.931 74.1765C176.97 74.4685 174.968 74.8022 173.007 75.2612C171.463 75.5949 169.961 76.0538 168.501 76.5962C167.166 77.0968 165.873 77.806 164.663 78.6404C162.494 80.1422 160.95 82.2699 160.199 84.6896C159.74 86.108 159.49 87.5265 159.448 88.9866V90.8222C159.448 91.9904 159.615 93.1168 159.907 94.2432C160.742 97.4138 162.828 100.167 165.748 101.919C168.334 103.421 171.255 104.297 174.258 104.423C175.218 104.464 176.177 104.423 177.137 104.423C178.555 104.423 180.016 104.256 181.392 103.922C186.273 102.921 190.654 100.418 193.908 96.8297C195.869 94.6603 197.412 92.1989 198.455 89.4872C199.749 86.3166 200.416 82.9791 200.458 79.5999V77.0133L200.583 77.0968Z" fill="url(#paint0_linear_1518_16261)"/>
<path d="M222.527 73.9681V39.8005C222.527 39.133 222.694 38.5072 223.069 37.9648C223.528 37.2556 224.154 36.6298 224.947 36.2126C225.739 35.8372 226.615 35.6286 227.491 35.6703C228.367 35.6703 229.244 36.0041 229.995 36.4212C230.745 36.8801 231.33 37.5476 231.705 38.2986C231.955 38.8409 232.08 39.3833 232.08 39.9673V107.426C232.08 107.969 232.08 108.511 231.955 109.053C231.788 109.763 231.413 110.43 230.871 110.973C230.328 111.515 229.661 111.932 228.952 112.141C228.159 112.433 227.324 112.516 226.448 112.391C225.614 112.266 224.821 111.932 224.196 111.39C223.653 111.014 223.236 110.514 222.944 109.971C222.652 109.387 222.485 108.761 222.527 108.136V73.9681Z" fill="url(#paint1_linear_1518_16261)"/>
<path d="M219.94 18.8991C219.94 17.3555 220.441 15.8537 221.442 14.6438C222.443 13.434 223.862 12.5579 225.447 12.1824C226.198 12.0155 227.032 11.9738 227.783 12.0155C229.244 12.099 230.662 12.5996 231.83 13.434C232.998 14.2683 233.874 15.4782 234.333 16.7715C234.75 17.8979 234.834 19.1077 234.584 20.2758C234.333 21.444 233.749 22.5286 232.915 23.4465C231.955 24.5311 230.704 25.3238 229.285 25.6575C228.326 25.9079 227.325 25.9913 226.282 25.8661C225.28 25.741 224.321 25.449 223.445 24.9483C222.569 24.4477 221.818 23.8219 221.234 23.0293C220.316 21.8194 219.857 20.3593 219.94 18.8991Z" fill="url(#paint2_linear_1518_16261)"/>
<path d="M268.918 35.7115C270.42 35.0858 272.214 34.5434 274.133 34.0428C277.012 33.3336 279.723 35.7115 279.39 38.6736C279.181 40.5092 277.804 42.0111 276.011 42.3448C274.217 42.7203 272.423 43.1792 270.754 43.8467C267.375 44.9314 264.371 46.9339 262.16 49.5621C260.825 51.1892 259.657 52.9831 258.781 54.8604C257.529 57.5304 256.57 60.3256 255.944 63.2042C255.61 64.6226 255.36 66.041 255.151 67.5012C255.026 68.419 254.943 69.2951 254.859 70.2129C254.859 70.4215 254.859 70.6301 254.817 70.8387C254.692 71.5896 254.651 72.2988 254.692 73.0498V107.76C254.692 108.344 254.692 108.886 254.484 109.47C254.233 110.305 253.733 111.014 253.065 111.598C252.398 112.14 251.522 112.516 250.646 112.641C249.728 112.766 248.768 112.641 247.892 112.307C247.266 112.057 246.641 111.64 246.223 111.181C245.764 110.68 245.431 110.096 245.264 109.428C245.18 109.178 245.139 108.886 245.139 108.636V74.2596V40.0086C245.139 39.0073 245.556 38.0478 246.223 37.2968C246.891 36.5459 247.85 36.0036 248.852 35.8367C249.519 35.6698 250.228 35.6698 250.938 35.8367C251.605 35.9618 252.273 36.2539 252.857 36.6293C253.441 37.0048 253.9 37.5054 254.233 38.0895C254.567 38.6736 254.734 39.3411 254.734 40.0086V50.48C254.734 50.8137 254.734 51.1892 254.776 51.4812C254.776 51.5229 254.776 51.5646 254.859 51.6064C254.859 51.6064 254.943 51.6481 254.984 51.6481C255.026 51.6481 255.109 51.6481 255.151 51.6481C255.151 51.6481 255.235 51.6064 255.276 51.5646C255.401 51.2726 255.568 51.0223 255.652 50.7303C256.111 49.4787 256.653 48.2689 257.279 47.059C258.28 45.0565 259.532 43.1792 261.034 41.5104C263.203 39.049 265.915 37.0883 269.043 35.8367L268.918 35.7115Z" fill="url(#paint3_linear_1518_16261)"/>
<path d="M333.624 55.6953C333.457 53.9848 333.123 52.3578 332.706 50.689C332.164 48.5196 331.288 46.4337 330.161 44.4312C328.868 42.1784 327.074 40.1759 324.947 38.5906C322.944 37.1304 320.65 35.9623 318.188 35.2114C316.645 34.7525 315.059 34.377 313.474 34.1684C308.134 33.3758 299.123 33.0837 291.738 33.4592C289.861 33.5426 288.318 35.0028 288.067 36.8801C287.733 39.2998 289.694 41.4692 292.156 41.3023C297.12 40.9686 303.169 41.2189 309.177 41.8029C310.387 41.9281 311.597 42.1784 312.765 42.5122C315.101 43.1797 317.27 44.3895 318.939 46.0582C320.232 47.3515 321.234 48.8534 321.985 50.4387C323.194 53.1087 323.945 55.9039 324.196 58.7825C324.196 59.1996 324.321 59.6585 324.321 60.1174C324.321 60.8267 324.404 61.5359 324.404 62.2451C324.404 62.5789 324.279 62.9126 324.07 63.2046C323.82 63.4549 323.528 63.6635 323.153 63.7053C322.819 63.7887 322.443 63.8304 322.11 63.8721L318.355 64.3728L314.183 64.9568L312.389 65.2071L308.635 65.7495C307.425 65.9164 306.257 66.0415 305.005 66.2084C303.753 66.3753 302.502 66.5838 301.25 66.7507C299.456 67.001 297.704 67.2513 295.952 67.5851C293.824 68.0023 291.78 68.5446 289.736 69.2538C287.233 70.0882 284.855 71.2146 282.644 72.6331C280.683 73.9263 278.889 75.5117 277.471 77.3473C274.926 80.6848 273.507 84.648 273.299 88.7365C273.215 89.8629 273.299 91.031 273.299 92.1991C273.299 94.0348 273.633 95.8287 274.217 97.5808C275.635 102.42 279.014 106.509 283.603 109.012C287.191 110.931 291.238 112.057 295.368 112.266C296.202 112.308 296.995 112.308 297.871 112.308C299.54 112.308 301.25 112.266 302.919 112.016C304.713 111.723 306.507 111.306 308.217 110.722C310.554 109.888 312.806 108.761 314.851 107.385C317.98 105.341 320.65 102.754 322.735 99.7085L323.027 99.2913C323.027 99.2913 323.111 99.1662 323.153 99.1244C323.236 99.041 323.361 98.9993 323.486 98.9576C323.612 98.9576 323.737 98.9576 323.862 98.9576C323.945 98.9576 324.07 99.041 324.154 99.1244C324.237 99.2079 324.279 99.2913 324.279 99.4165C324.321 99.7085 324.362 100.042 324.362 100.334V108.261C324.362 109.012 324.613 109.763 325.03 110.388C325.656 111.306 326.615 111.974 327.7 112.266C328.785 112.6 329.953 112.516 331.037 112.099C331.705 111.849 332.331 111.431 332.831 110.889C333.332 110.347 333.666 109.721 333.833 109.053C333.916 108.595 334 108.094 333.958 107.635V83.8137V62.2034C333.958 59.9923 333.833 57.8229 333.582 55.6118L333.624 55.6953ZM324.362 79.6418C324.362 83.021 323.653 86.3585 322.36 89.5291C321.317 92.1991 319.773 94.7022 317.813 96.8716C314.559 100.459 310.178 102.921 305.297 103.964C303.92 104.298 302.46 104.464 301.042 104.464C300.082 104.464 299.123 104.506 298.163 104.464C295.159 104.339 292.197 103.463 289.653 101.961C286.732 100.209 284.646 97.4557 283.812 94.2851C283.478 93.2004 283.311 92.0323 283.353 90.8641V89.0285C283.353 87.5684 283.645 86.1082 284.104 84.7315C284.813 82.2701 286.398 80.1424 288.568 78.6823C289.736 77.8479 291.029 77.1804 292.406 76.6381C293.866 76.0957 295.368 75.6368 296.912 75.3031C298.831 74.8441 300.833 74.4687 302.836 74.2184L307.425 73.5926C308.718 73.4257 309.97 73.2171 311.263 73.0502C312.556 72.8834 313.849 72.7165 315.101 72.5913C316.352 72.4245 317.604 72.2576 318.856 72.0907L320.9 71.8404C321.234 71.8404 321.609 71.757 321.943 71.7152C322.277 71.7152 322.652 71.6318 323.027 71.6318C323.403 71.6318 323.737 71.757 323.987 72.0073C324.279 72.2576 324.446 72.5496 324.488 72.8834V79.7252L324.362 79.6418Z" fill="url(#paint4_linear_1518_16261)"/>
</g>
<path d="M133.333 70.2546C132.582 58.3231 127.367 43.1792 117.479 37.6723C112.724 35.044 107.634 35.0023 102.753 37.5889C98.6643 39.7582 95.4937 44.9731 92.4482 50.9806C91.0715 53.7757 90.2372 56.6543 91.1967 59.4912C92.1979 62.4115 93.9084 64.7894 95.744 60.9096C99.5821 53.0665 103.42 46.7252 106.674 45.0148C109.011 43.7632 111.138 43.7632 113.349 45.0148C119.273 48.3106 124.154 59.2409 124.905 70.7969C125.781 84.6475 121.985 98.2896 115.894 103.212C113.725 104.965 111.514 105.423 108.969 104.714C108.26 104.506 102.92 104.088 96.2864 89.4452C92.7403 81.6438 91.5304 77.3885 90.1954 73.6755L86.5242 61.9109C84.6886 55.7782 82.2272 47.7265 78.6394 37.5471C69.5447 11.4729 57.3211 -1.41814 42.1772 0.125456C31.4972 1.21014 23.07 7.67654 15.2686 18.0228C7.17522 28.8279 2.16897 43.7215 0.541944 60.701C-2.96243 97.2883 10.7213 129.12 31.7058 133.208C32.7905 133.417 33.8752 133.542 35.0016 133.542C45.3895 133.542 57.5297 124.447 71.0465 106.383C77.5129 97.7889 82.6026 88.9446 85.6481 83.2291C86.6911 86.0243 87.9843 89.32 89.4445 92.7827C94.8262 105.507 101.376 111.264 106.716 112.766C108.26 113.183 109.762 113.392 111.222 113.392C114.809 113.392 118.189 112.14 121.234 109.72C129.578 103.045 134.417 87.1924 133.374 70.2546H133.333ZM64.2464 101.418C47.392 123.863 37.8385 124.364 33.5414 123.529C26.0738 122.069 18.9399 116.229 14.3091 105.006C9.30287 92.8244 7.38381 77.3885 8.9274 61.4937C10.4293 46.0577 14.8515 32.5826 22.0271 23.029C28.3266 14.6018 36.3783 8.21888 44.6386 8.84466C54.3591 9.63732 62.4108 19.3578 70.7962 40.4674C75.8859 53.2751 80.0995 66.4165 81.9351 72.4657C81.8934 72.5491 81.81 72.716 81.7683 72.8412C81.6848 72.9663 74.384 87.8182 64.163 101.377L64.2464 101.418Z" fill="url(#paint5_linear_1518_16261)"/>
</g>
<path d="M234.735 170.391C234.7 170.396 234.665 170.396 234.63 170.391C234.544 170.361 234.462 170.321 234.376 170.288C233.991 170.136 233.575 170.073 233.16 170.105C232.746 170.136 232.344 170.26 231.987 170.468C231.928 170.5 231.87 170.54 231.813 170.573C231.756 170.605 231.696 170.573 231.694 170.517C231.694 170.405 231.694 170.293 231.694 170.181C231.694 167.633 231.694 165.084 231.694 162.534C231.694 162.41 231.694 162.289 231.677 162.168C231.677 162.152 231.651 162.133 231.632 162.126C231.622 162.122 231.611 162.119 231.6 162.119C231.59 162.119 231.579 162.122 231.569 162.126C231.5 162.201 231.433 162.278 231.371 162.359C231.139 162.651 230.891 162.93 230.628 163.195C229.463 164.367 227.991 165.205 226.371 165.618C225.873 165.748 225.366 165.844 224.854 165.904C224.149 165.997 223.438 166.032 222.728 166.009C222.317 165.993 221.906 165.958 221.495 165.902C220.769 165.805 220.056 165.63 219.369 165.38C218 164.876 216.773 164.064 215.785 163.011C214.842 162.014 214.096 160.854 213.585 159.592C213.248 158.772 212.994 157.923 212.826 157.055C212.74 156.616 212.67 156.175 212.618 155.732C212.527 154.988 212.484 154.24 212.489 153.491C212.489 153.212 212.489 152.932 212.489 152.653C212.486 152.406 212.501 152.16 212.534 151.916C212.536 151.872 212.536 151.828 212.534 151.784C212.571 151.226 212.639 150.671 212.74 150.12C212.854 149.437 213.02 148.763 213.234 148.103C213.602 146.96 214.14 145.876 214.832 144.886C215.717 143.598 216.866 142.502 218.208 141.669C219.218 141.047 220.331 140.601 221.497 140.351C221.901 140.262 222.305 140.197 222.716 140.148C223.412 140.075 224.114 140.053 224.813 140.083C225.593 140.106 226.367 140.219 227.119 140.421C228.749 140.837 230.201 141.748 231.264 143.023C231.335 143.109 231.405 143.198 231.479 143.286C231.507 143.321 231.539 143.353 231.574 143.382C231.594 143.387 231.616 143.387 231.636 143.382C231.642 143.382 231.649 143.382 231.655 143.38C231.66 143.378 231.666 143.375 231.67 143.37C231.674 143.366 231.678 143.361 231.68 143.355C231.682 143.349 231.682 143.343 231.682 143.337C231.682 143.249 231.696 143.16 231.696 143.072C231.696 142.736 231.696 142.401 231.696 142.065C231.695 141.784 231.783 141.509 231.949 141.278C232.179 140.96 232.525 140.74 232.916 140.663C233.307 140.586 233.714 140.659 234.052 140.866C234.271 140.99 234.452 141.169 234.575 141.384C234.699 141.6 234.761 141.844 234.754 142.091C234.754 142.159 234.754 142.226 234.754 142.291C234.754 151.514 234.754 160.738 234.754 169.962C234.763 170.105 234.757 170.249 234.735 170.391ZM231.694 152.715C231.694 152.055 231.694 151.396 231.694 150.738C231.697 150.349 231.679 149.96 231.639 149.573C231.592 149.14 231.516 148.71 231.412 148.287C231.158 147.263 230.687 146.302 230.029 145.466C229.383 144.633 228.536 143.968 227.563 143.531C226.695 143.152 225.763 142.931 224.813 142.881C224.436 142.857 224.056 142.881 223.679 142.881C223.208 142.887 222.74 142.942 222.281 143.046C221.166 143.276 220.124 143.763 219.24 144.465C218.065 145.39 217.153 146.593 216.591 147.959C216.189 148.946 215.917 149.98 215.781 151.034C215.709 151.532 215.678 152.035 215.652 152.536C215.61 153.374 215.633 154.213 215.719 155.047C215.767 155.581 215.847 156.111 215.957 156.636C216.113 157.369 216.343 158.086 216.645 158.774C217.076 159.754 217.698 160.641 218.478 161.388C219.228 162.118 220.153 162.655 221.17 162.948C222.03 163.192 222.929 163.284 223.822 163.219C224.164 163.195 224.508 163.177 224.849 163.128C225.462 163.046 226.065 162.904 226.648 162.704C227.834 162.297 228.88 161.577 229.67 160.624C230.113 160.096 230.49 159.518 230.793 158.902C231.363 157.723 231.668 156.439 231.689 155.136C231.708 154.325 231.694 153.519 231.694 152.715Z" fill="#81878D"/>
<path d="M288.065 153.541H280.182C280.079 153.541 279.976 153.541 279.871 153.541C279.732 153.539 279.597 153.588 279.493 153.68C279.39 153.771 279.326 153.897 279.314 154.033C279.311 154.088 279.311 154.144 279.314 154.2C279.314 154.547 279.314 154.899 279.314 155.239C279.36 156.94 279.884 158.596 280.829 160.026C281.638 161.259 282.813 162.224 284.197 162.791C284.61 162.961 285.039 163.088 285.478 163.171C286.152 163.307 286.837 163.378 287.525 163.383C287.939 163.383 288.352 163.383 288.763 163.383C289.049 163.372 289.335 163.346 289.618 163.306C290.432 163.195 291.232 163.005 292.007 162.74C292.72 162.494 293.411 162.189 294.071 161.829L294.131 161.794C294.287 161.705 294.461 161.651 294.641 161.633C294.821 161.616 295.003 161.636 295.174 161.693C295.346 161.75 295.502 161.842 295.634 161.963C295.765 162.084 295.869 162.232 295.937 162.395C296.041 162.64 296.06 162.912 295.993 163.169C295.925 163.426 295.774 163.655 295.562 163.821C295.481 163.883 295.396 163.94 295.306 163.991C294.144 164.669 292.887 165.179 291.575 165.505C291.031 165.64 290.48 165.746 289.924 165.824C288.936 165.959 287.938 166.013 286.94 165.987C286.792 165.987 286.641 165.975 286.493 165.987C286.161 165.979 285.83 165.948 285.502 165.896C285.059 165.84 284.62 165.757 284.188 165.647C282.627 165.256 281.187 164.499 279.993 163.443C279.151 162.697 278.444 161.818 277.9 160.844C277.361 159.882 276.947 158.858 276.667 157.797C276.513 157.224 276.393 156.643 276.309 156.057C276.256 155.679 276.211 155.304 276.175 154.925C276.087 153.888 276.072 152.847 276.13 151.808C276.144 151.484 276.194 151.163 276.233 150.841C276.271 150.52 276.323 150.222 276.383 149.91C276.609 148.745 276.986 147.613 277.506 146.541C278.034 145.424 278.737 144.394 279.589 143.487C280.879 142.109 282.52 141.088 284.346 140.527C284.794 140.397 285.252 140.297 285.714 140.226C286.359 140.122 287.013 140.075 287.666 140.084C287.953 140.084 288.24 140.084 288.526 140.105C288.813 140.126 289.052 140.145 289.312 140.182C289.857 140.255 290.395 140.371 290.92 140.529C292.892 141.117 294.582 142.377 295.681 144.079C296.245 144.948 296.684 145.889 296.986 146.874C297.211 147.59 297.379 148.321 297.487 149.062C297.545 149.448 297.585 149.837 297.628 150.226C297.69 150.806 297.686 151.391 297.7 151.969C297.713 152.159 297.689 152.349 297.628 152.53C297.547 152.771 297.402 152.986 297.208 153.154C297.015 153.323 296.779 153.438 296.525 153.49C296.402 153.52 296.276 153.535 296.149 153.536C295.954 153.536 295.76 153.536 295.564 153.536L288.065 153.541ZM286.978 150.897H293.61H293.987C294.112 150.89 294.229 150.839 294.317 150.753C294.405 150.667 294.458 150.553 294.465 150.431C294.471 150.263 294.465 150.095 294.446 149.928C294.403 149.63 294.386 149.33 294.341 149.029C294.26 148.477 294.135 147.932 293.968 147.399C293.726 146.605 293.351 145.855 292.857 145.181C292.138 144.187 291.112 143.442 289.929 143.054C289.253 142.84 288.549 142.72 287.838 142.698C287.139 142.669 286.438 142.73 285.755 142.879C284.398 143.158 283.154 143.814 282.172 144.769C281.58 145.353 281.081 146.02 280.693 146.749C280.1 147.861 279.689 149.056 279.474 150.292C279.462 150.362 279.464 150.435 279.482 150.505C279.499 150.575 279.531 150.64 279.576 150.697C279.621 150.754 279.678 150.801 279.743 150.836C279.807 150.87 279.879 150.891 279.952 150.897C280.067 150.897 280.191 150.897 280.296 150.897H286.978Z" fill="#81878D"/>
<path d="M326.169 156.591C326.169 159.207 326.169 161.822 326.169 164.439C326.176 164.595 326.163 164.752 326.128 164.905C326.073 165.129 325.964 165.337 325.809 165.511C325.655 165.685 325.459 165.82 325.239 165.904C324.902 166.042 324.527 166.06 324.178 165.955C323.828 165.85 323.528 165.63 323.328 165.331C323.189 165.123 323.113 164.881 323.108 164.632C323.108 164.544 323.108 164.453 323.108 164.365C323.108 163.588 323.108 162.805 323.108 162.017C323.11 161.917 323.102 161.817 323.085 161.718C323.078 161.685 323.061 161.655 323.038 161.63C323.014 161.606 322.984 161.588 322.951 161.579C322.912 161.567 322.871 161.565 322.832 161.575C322.793 161.584 322.757 161.604 322.729 161.632C322.711 161.647 322.696 161.665 322.683 161.683L322.59 161.823C321.928 162.821 321.071 163.681 320.067 164.355C319.413 164.809 318.699 165.178 317.946 165.45C317.396 165.643 316.829 165.785 316.252 165.874C315.719 165.951 315.181 165.984 314.642 165.972C314.379 165.972 314.114 165.972 313.851 165.951C312.531 165.881 311.244 165.514 310.093 164.879C308.623 164.056 307.544 162.701 307.09 161.108C306.909 160.53 306.812 159.93 306.804 159.326C306.804 158.946 306.789 158.564 306.816 158.187C306.881 156.838 307.343 155.536 308.149 154.437C308.607 153.834 309.165 153.31 309.799 152.885C310.501 152.419 311.261 152.043 312.062 151.767C312.709 151.541 313.371 151.359 314.045 151.224C314.606 151.11 315.17 151.022 315.738 150.947C316.135 150.896 316.532 150.828 316.933 150.773C317.334 150.717 317.705 150.67 318.089 150.617L319.284 150.442L319.862 150.36L321.188 150.174L322.382 150.013C322.494 149.997 322.609 149.978 322.719 149.953C322.833 149.931 322.936 149.871 323.01 149.784C323.083 149.696 323.123 149.586 323.123 149.473C323.123 149.24 323.111 149.007 323.097 148.774C323.097 148.63 323.073 148.485 323.058 148.341C322.975 147.391 322.736 146.461 322.351 145.585C322.113 145.051 321.783 144.561 321.374 144.136C320.832 143.584 320.152 143.179 319.401 142.96C319.028 142.848 318.646 142.77 318.259 142.727C317.863 142.679 317.463 142.664 317.064 142.683C316.675 142.704 316.288 142.739 315.901 142.79C315.346 142.865 314.796 142.978 314.257 143.128C313.287 143.395 312.353 143.776 311.477 144.262C311.339 144.342 311.189 144.4 311.032 144.432C310.757 144.486 310.472 144.45 310.221 144.328C309.969 144.207 309.767 144.008 309.644 143.762C309.522 143.516 309.487 143.237 309.545 142.97C309.603 142.702 309.75 142.461 309.964 142.284C310.053 142.214 310.147 142.15 310.246 142.093C311.426 141.401 312.706 140.884 314.042 140.561C314.609 140.423 315.183 140.315 315.762 140.239C316.114 140.192 316.479 140.162 316.823 140.134C317.167 140.106 317.602 140.088 317.991 140.083H318.302C318.749 140.094 319.194 140.136 319.635 140.209C320.145 140.282 320.648 140.398 321.138 140.556C321.915 140.8 322.643 141.175 323.288 141.665C323.973 142.192 324.542 142.849 324.96 143.596C325.322 144.244 325.594 144.937 325.77 145.655C325.907 146.197 326.005 146.748 326.064 147.304C326.142 148.026 326.181 148.752 326.181 149.477C326.181 151.847 326.181 154.217 326.181 156.587L326.169 156.591ZM323.113 154.353C323.113 153.973 323.113 153.593 323.113 153.214C323.119 153.125 323.119 153.035 323.113 152.946C323.095 152.834 323.037 152.732 322.95 152.657C322.863 152.582 322.752 152.539 322.635 152.536C322.521 152.538 322.407 152.546 322.294 152.562C322.179 152.573 322.067 152.592 321.955 152.608L321.307 152.694C320.911 152.75 320.514 152.811 320.113 152.864C319.711 152.918 319.296 152.969 318.887 153.023C318.479 153.076 318.072 153.142 317.664 153.197L316.202 153.4C315.567 153.488 314.937 153.608 314.315 153.759C313.826 153.87 313.347 154.018 312.881 154.201C312.446 154.373 312.034 154.597 311.656 154.868C310.966 155.361 310.465 156.065 310.234 156.869C310.091 157.329 310.011 157.806 309.995 158.287C309.995 158.488 309.995 158.69 309.995 158.891C309.993 159.271 310.045 159.649 310.148 160.016C310.415 161.058 311.082 161.961 312.012 162.538C312.831 163.039 313.769 163.324 314.735 163.368C315.043 163.389 315.354 163.368 315.662 163.368C316.121 163.364 316.578 163.31 317.024 163.205C318.579 162.872 319.981 162.054 321.018 160.875C321.645 160.16 322.139 159.344 322.475 158.462C322.884 157.42 323.1 156.316 323.113 155.201C323.116 154.903 323.113 154.63 323.113 154.351V154.353Z" fill="#81878D"/>
<path d="M258.844 153.371C258.844 157.016 258.844 160.66 258.844 164.305C258.844 164.405 258.844 164.506 258.844 164.608C258.843 164.93 258.732 165.242 258.528 165.496C258.324 165.749 258.039 165.928 257.719 166.006C257.527 166.057 257.326 166.07 257.129 166.045C256.932 166.02 256.742 165.957 256.57 165.86C256.398 165.763 256.247 165.633 256.127 165.478C256.007 165.324 255.919 165.148 255.87 164.96C255.851 164.883 255.84 164.805 255.839 164.727C255.839 164.615 255.839 164.494 255.839 164.391C255.827 163.615 255.817 162.844 255.807 162.078C255.807 162.011 255.807 161.943 255.807 161.878C255.802 161.839 255.784 161.803 255.757 161.774C255.729 161.746 255.694 161.726 255.655 161.717C255.621 161.708 255.586 161.709 255.552 161.718C255.519 161.728 255.489 161.746 255.466 161.771C255.419 161.82 255.378 161.873 255.342 161.929C255.232 162.088 255.129 162.248 255.017 162.395C254.395 163.271 253.609 164.025 252.699 164.615C251.843 165.16 250.892 165.547 249.892 165.759C249.49 165.847 249.082 165.909 248.672 165.945C248.306 165.975 247.938 165.978 247.573 165.98C247.264 165.98 246.954 165.972 246.643 165.957C246.393 165.943 246.139 165.919 245.891 165.882C245.3 165.802 244.718 165.671 244.152 165.491C243.189 165.185 242.304 164.685 241.552 164.023C240.944 163.476 240.434 162.834 240.043 162.123C239.662 161.433 239.366 160.702 239.161 159.945C238.999 159.362 238.877 158.77 238.796 158.172C238.738 157.75 238.698 157.329 238.657 156.907C238.602 156.327 238.6 155.742 238.6 155.165C238.6 150.871 238.6 146.578 238.6 142.285C238.595 142.118 238.608 141.951 238.64 141.787C238.709 141.516 238.855 141.27 239.06 141.077C239.266 140.884 239.524 140.751 239.804 140.694C240.023 140.649 240.25 140.651 240.469 140.699C240.687 140.748 240.892 140.843 241.07 140.976C241.249 141.1 241.394 141.264 241.494 141.454C241.594 141.644 241.646 141.855 241.646 142.069C241.646 142.157 241.646 142.248 241.646 142.337C241.646 146.328 241.652 150.32 241.665 154.312C241.665 154.915 241.693 155.519 241.722 156.122C241.739 156.467 241.782 156.821 241.827 157.156C241.885 157.578 241.959 157.995 242.066 158.409C242.196 158.988 242.386 159.552 242.632 160.094C242.917 160.731 243.317 161.313 243.815 161.81C244.392 162.375 245.099 162.799 245.876 163.045C246.301 163.18 246.738 163.277 247.181 163.334C247.796 163.399 248.417 163.415 249.035 163.38C250.38 163.271 251.662 162.775 252.719 161.955C253.552 161.3 254.231 160.477 254.706 159.542C255.131 158.723 255.43 157.848 255.595 156.944C255.731 156.195 255.797 155.436 255.793 154.675C255.793 150.629 255.793 146.581 255.793 142.532C255.793 142.409 255.793 142.285 255.793 142.164C255.782 141.871 255.866 141.582 256.034 141.337C256.201 141.093 256.443 140.907 256.725 140.804C257.055 140.662 257.425 140.636 257.773 140.728C258.121 140.821 258.426 141.028 258.636 141.314C258.785 141.514 258.868 141.752 258.875 141.999C258.875 142.122 258.875 142.246 258.875 142.367C258.875 146.035 258.87 149.702 258.861 153.369L258.844 153.371Z" fill="#81878D"/>
<path d="M262.914 153.369C262.914 149.713 262.914 146.058 262.914 142.402C262.914 142.29 262.914 142.169 262.914 142.066C262.924 141.739 263.048 141.424 263.264 141.173C263.481 140.922 263.779 140.75 264.109 140.685C264.327 140.636 264.554 140.633 264.773 140.678C264.993 140.723 265.2 140.813 265.379 140.944C265.564 141.069 265.715 141.236 265.82 141.43C265.925 141.624 265.98 141.84 265.982 142.059C265.982 142.16 265.982 142.26 265.982 142.362C265.982 143.414 265.982 144.464 265.982 145.514C265.982 145.626 265.982 145.747 265.998 145.847C266 145.864 266.009 145.879 266.021 145.891C266.034 145.902 266.05 145.909 266.068 145.91C266.085 145.913 266.102 145.911 266.118 145.903C266.133 145.896 266.146 145.883 266.154 145.868C266.194 145.777 266.24 145.686 266.273 145.591C266.42 145.179 266.591 144.776 266.787 144.384C267.106 143.728 267.507 143.112 267.981 142.551C268.668 141.735 269.544 141.091 270.537 140.671C271.053 140.454 271.597 140.308 272.155 140.238C272.542 140.191 272.933 140.177 273.323 140.196L273.942 140.226C274.114 140.234 274.283 140.266 274.446 140.322C274.741 140.42 274.998 140.605 275.181 140.851C275.364 141.097 275.464 141.393 275.468 141.697C275.472 142.001 275.379 142.298 275.203 142.549C275.026 142.8 274.774 142.991 274.481 143.096C274.255 143.187 274.007 143.217 273.765 143.182C273.493 143.143 273.218 143.124 272.943 143.126C272.804 143.126 272.668 143.126 272.53 143.126C272.048 143.123 271.569 143.201 271.115 143.359C270.034 143.718 269.082 144.375 268.375 145.251C267.943 145.787 267.58 146.374 267.295 146.998C266.895 147.88 266.59 148.8 266.388 149.744C266.283 150.21 266.204 150.676 266.134 151.163C266.091 151.461 266.07 151.761 266.039 152.062C266.039 152.129 266.039 152.197 266.022 152.262C265.988 152.506 265.973 152.752 265.977 152.998C265.977 153.635 265.977 154.272 265.977 154.911C265.977 158.086 265.977 161.261 265.977 164.436C265.984 164.625 265.964 164.815 265.917 164.999C265.836 165.269 265.677 165.51 265.459 165.693C265.24 165.875 264.972 165.992 264.687 166.029C264.39 166.074 264.086 166.037 263.81 165.922C263.602 165.838 263.417 165.709 263.27 165.543C263.123 165.377 263.019 165.179 262.964 164.967C262.941 164.881 262.928 164.792 262.924 164.704C262.924 164.571 262.924 164.436 262.924 164.301C262.924 160.656 262.924 157.011 262.924 153.366L262.914 153.369Z" fill="#81878D"/>
<path d="M330.124 153.323C330.124 149.68 330.124 146.036 330.124 142.392C330.124 142.28 330.124 142.159 330.124 142.056C330.122 141.843 330.182 141.633 330.296 141.45C330.439 141.211 330.647 141.014 330.897 140.882C331.146 140.75 331.428 140.686 331.712 140.699C331.996 140.712 332.271 140.801 332.507 140.956C332.743 141.11 332.931 141.325 333.051 141.576C333.129 141.75 333.172 141.938 333.177 142.128C333.177 142.217 333.177 142.308 333.177 142.396C333.177 149.717 333.177 157.038 333.177 164.36C333.188 164.539 333.174 164.718 333.137 164.893C333.08 165.129 332.963 165.347 332.795 165.526C332.628 165.705 332.416 165.839 332.181 165.916C331.928 166.012 331.653 166.04 331.385 165.996C331.117 165.952 330.866 165.838 330.659 165.667C330.489 165.541 330.351 165.379 330.257 165.192C330.164 165.005 330.116 164.799 330.119 164.591C330.119 164.523 330.119 164.456 330.119 164.39C330.119 160.702 330.119 157.014 330.119 153.326L330.124 153.323Z" fill="#81878D"/>
<path d="M240.761 170C240.761 170.181 240.724 170.361 240.652 170.528C240.581 170.696 240.476 170.848 240.343 170.976C240.265 171.057 240.183 171.136 240.104 171.209L236.01 175.238C235.945 175.301 235.883 175.366 235.814 175.427C235.54 175.67 235.184 175.806 234.814 175.809C234.443 175.812 234.085 175.682 233.807 175.443C233.721 175.371 233.64 175.29 233.568 175.21L232.19 173.855L232.094 173.759C231.88 173.537 231.748 173.252 231.719 172.949C231.666 172.589 231.738 172.222 231.923 171.907C232.108 171.591 232.396 171.345 232.741 171.207C233.087 171.07 233.469 171.049 233.828 171.147C234.187 171.246 234.501 171.458 234.722 171.751C234.756 171.796 234.784 171.844 234.82 171.889C234.854 171.927 234.9 171.952 234.952 171.961C235.003 171.969 235.055 171.959 235.1 171.933C235.137 171.908 235.172 171.88 235.205 171.849C235.279 171.779 235.35 171.707 235.424 171.637L238.016 169.093C238.098 169.014 238.177 168.933 238.255 168.86C238.528 168.615 238.887 168.481 239.259 168.485C239.564 168.483 239.862 168.571 240.114 168.737C240.367 168.903 240.562 169.141 240.673 169.417C240.745 169.603 240.775 169.802 240.761 170Z" fill="#81878D"/>
<path d="M301.452 165.979C301.043 165.987 300.638 165.888 300.281 165.692C299.924 165.496 299.627 165.211 299.422 164.866C299.226 164.55 299.119 164.19 299.111 163.822C299.078 163.385 299.173 162.948 299.386 162.562C299.529 162.294 299.728 162.057 299.97 161.868C300.212 161.678 300.491 161.539 300.79 161.46C301.38 161.297 302.011 161.361 302.554 161.639C303.096 161.917 303.508 162.387 303.705 162.953C303.806 163.259 303.841 163.582 303.808 163.902C303.774 164.221 303.673 164.531 303.51 164.81C303.347 165.089 303.126 165.333 302.861 165.524C302.597 165.716 302.294 165.852 301.973 165.923C301.801 165.951 301.627 165.97 301.452 165.979Z" fill="#81878D"/>
<path d="M329.286 135.17C329.276 134.661 329.443 134.163 329.762 133.759C330.08 133.354 330.53 133.068 331.037 132.946C331.284 132.897 331.536 132.879 331.787 132.892C332.259 132.918 332.711 133.083 333.084 133.365C333.458 133.647 333.734 134.033 333.878 134.471C334.008 134.843 334.035 135.242 333.956 135.627C333.876 136.012 333.694 136.37 333.426 136.663C333.129 137.022 332.721 137.279 332.263 137.395C331.952 137.478 331.627 137.501 331.307 137.462C330.988 137.424 330.681 137.322 330.405 137.162C330.129 137.001 329.89 136.786 329.704 136.531C329.408 136.138 329.26 135.657 329.286 135.17Z" fill="#81878D"/>
<g clip-path="url(#clip1_1518_16261)">
<path d="M194.765 142.575C194.493 142.176 194.041 141.934 193.517 141.934C192.914 141.934 192.378 142.294 192.155 142.856L184.638 161.834L184.427 162.429C184.361 162.233 184.277 161.985 184.162 161.684L177.134 142.883C176.923 142.32 176.374 141.934 175.766 141.934H175.645C175.163 141.934 174.717 142.17 174.44 142.562C174.168 142.954 174.108 143.458 174.277 143.903L182.715 165.817C182.776 165.98 182.776 166.157 182.709 166.32L180.636 171.232C179.575 173.749 178.195 174.972 176.417 174.972C176.151 174.972 175.892 174.959 175.657 174.927C175.259 174.874 174.849 175.005 174.548 175.273C174.235 175.548 174.054 175.947 174.054 176.372C174.054 177.078 174.56 177.68 175.259 177.804C175.591 177.863 175.952 177.889 176.326 177.889C178.104 177.889 179.587 177.327 180.726 176.215C181.829 175.136 182.842 173.481 183.74 171.291L194.909 143.929C195.09 143.484 195.036 142.974 194.765 142.575ZM161.733 141.352C159.738 141.352 157.882 141.856 156.218 142.843C154.91 143.622 153.831 144.661 152.999 145.95V131.876C152.993 131.079 152.342 130.431 151.51 130.431C150.679 130.431 150.052 131.079 150.052 131.876V165.189C150.052 165.993 150.709 166.641 151.535 166.641C152.36 166.641 152.993 165.993 152.993 165.196V163.24C154.789 165.895 157.375 167.229 160.721 167.229C161.932 167.229 163.24 167.053 164.645 166.706C164.789 166.674 164.928 166.615 165.055 166.543C169.581 163.92 171.878 159.513 171.878 153.431C171.878 149.756 170.98 146.8 169.208 144.642C167.417 142.464 164.898 141.352 161.727 141.352H161.733ZM166.61 161.514C165.133 163.521 163.27 164.502 160.908 164.502C158.545 164.502 156.646 163.698 155.187 162.05C153.735 160.409 152.999 158.414 152.999 156.119V153.104C152.999 150.684 153.747 148.546 155.223 146.754C156.682 144.988 158.774 144.092 161.456 144.092C163.71 144.092 165.464 144.91 166.815 146.59C168.165 148.271 168.852 150.593 168.852 153.483C168.852 156.799 168.098 159.5 166.616 161.52L166.61 161.514Z" fill="#81878D"/>
</g>
<defs>
<linearGradient id="paint0_linear_1518_16261" x1="181.309" y1="51.9404" x2="331.955" y2="105.048" gradientUnits="userSpaceOnUse">
<stop offset="0.41" stop-color="#F3776A"/>
<stop offset="0.5" stop-color="#ED7A70"/>
<stop offset="0.63" stop-color="#DD8484"/>
<stop offset="0.79" stop-color="#C394A4"/>
<stop offset="0.96" stop-color="#9FAAD0"/>
<stop offset="1" stop-color="#98AFDA"/>
</linearGradient>
<linearGradient id="paint1_linear_1518_16261" x1="181.309" y1="51.9406" x2="331.955" y2="105.049" gradientUnits="userSpaceOnUse">
<stop offset="0.41" stop-color="#F3776A"/>
<stop offset="0.5" stop-color="#ED7A70"/>
<stop offset="0.63" stop-color="#DD8484"/>
<stop offset="0.79" stop-color="#C394A4"/>
<stop offset="0.96" stop-color="#9FAAD0"/>
<stop offset="1" stop-color="#98AFDA"/>
</linearGradient>
<linearGradient id="paint2_linear_1518_16261" x1="181.309" y1="51.9403" x2="331.955" y2="105.048" gradientUnits="userSpaceOnUse">
<stop offset="0.41" stop-color="#F3776A"/>
<stop offset="0.5" stop-color="#ED7A70"/>
<stop offset="0.63" stop-color="#DD8484"/>
<stop offset="0.79" stop-color="#C394A4"/>
<stop offset="0.96" stop-color="#9FAAD0"/>
<stop offset="1" stop-color="#98AFDA"/>
</linearGradient>
<linearGradient id="paint3_linear_1518_16261" x1="181.309" y1="51.9401" x2="331.955" y2="105.048" gradientUnits="userSpaceOnUse">
<stop offset="0.41" stop-color="#F3776A"/>
<stop offset="0.5" stop-color="#ED7A70"/>
<stop offset="0.63" stop-color="#DD8484"/>
<stop offset="0.79" stop-color="#C394A4"/>
<stop offset="0.96" stop-color="#9FAAD0"/>
<stop offset="1" stop-color="#98AFDA"/>
</linearGradient>
<linearGradient id="paint4_linear_1518_16261" x1="181.309" y1="51.9406" x2="331.955" y2="105.048" gradientUnits="userSpaceOnUse">
<stop offset="0.41" stop-color="#F3776A"/>
<stop offset="0.5" stop-color="#ED7A70"/>
<stop offset="0.63" stop-color="#DD8484"/>
<stop offset="0.79" stop-color="#C394A4"/>
<stop offset="0.96" stop-color="#9FAAD0"/>
<stop offset="1" stop-color="#98AFDA"/>
</linearGradient>
<linearGradient id="paint5_linear_1518_16261" x1="85.1058" y1="99.9583" x2="-5.09008" y2="1.54389" gradientUnits="userSpaceOnUse">
<stop stop-color="#F3776A"/>
<stop offset="0.15" stop-color="#EF796E"/>
<stop offset="0.33" stop-color="#E4807C"/>
<stop offset="0.51" stop-color="#D28B92"/>
<stop offset="0.7" stop-color="#B89BB2"/>
<stop offset="0.89" stop-color="#98AFDA"/>
</linearGradient>
<clipPath id="clip0_1518_16261">
<rect width="334" height="133.5" fill="white"/>
</clipPath>
<clipPath id="clip1_1518_16261">
<rect width="44.96" height="47.4578" fill="white" transform="translate(150.052 130.431)"/>
</clipPath>
</defs>
</svg>
