<svg width="410" height="119" viewBox="0 0 410 119" fill="none" xmlns="http://www.w3.org/2000/svg">
<g clip-path="url(#clip0_7813_7123)">
<mask id="mask0_7813_7123" style="mask-type:luminance" maskUnits="userSpaceOnUse" x="197" y="35" width="83" height="45">
<path d="M279.266 35.1401H197.226V79.9449H279.266V35.1401Z" fill="white"/>
</mask>
<g mask="url(#mask0_7813_7123)">
<path d="M224.182 67.125V77.7186C224.182 77.9227 224.182 78.1453 224.126 78.3494C224.052 78.6463 223.903 78.9431 223.681 79.1657C223.458 79.4069 223.198 79.5924 222.883 79.7038C222.419 79.8893 221.881 79.9078 221.399 79.778C220.916 79.6295 220.49 79.3327 220.211 78.9431C220.026 78.6648 219.915 78.3309 219.915 77.9969V74.4719C219.915 74.342 219.915 74.1936 219.877 74.0637C219.877 74.0266 219.84 73.971 219.822 73.9339C219.785 73.8968 219.748 73.8782 219.692 73.8597C219.636 73.8597 219.581 73.8597 219.525 73.8597C219.469 73.8597 219.414 73.8968 219.377 73.9339C219.358 73.9339 219.339 73.971 219.321 74.0081L219.191 74.1936C218.263 75.548 217.076 76.6982 215.685 77.6073C214.775 78.2195 213.774 78.7205 212.735 79.0915C211.974 79.3513 211.176 79.5553 210.378 79.6667C209.636 79.778 208.894 79.8151 208.134 79.7965C207.763 79.7965 207.391 79.7965 207.02 79.778C205.184 79.6852 203.384 79.1843 201.789 78.3309C199.748 77.2177 198.226 75.3995 197.614 73.2474C197.354 72.4682 197.225 71.6704 197.206 70.8541C197.206 70.3532 197.206 69.8337 197.206 69.3143C197.299 67.4961 197.93 65.7336 199.061 64.2494C199.692 63.4331 200.471 62.7281 201.362 62.1529C202.345 61.5221 203.403 61.0212 204.516 60.6502C205.406 60.3348 206.334 60.0936 207.28 59.908C208.059 59.7596 208.857 59.6298 209.636 59.537C210.193 59.4628 210.75 59.3886 211.306 59.2958C211.863 59.2216 212.382 59.1474 212.92 59.0917L214.59 58.8505L215.388 58.7392L217.243 58.4795L218.913 58.2569C219.061 58.2383 219.228 58.2198 219.377 58.1826C219.525 58.1641 219.673 58.0713 219.785 57.96C219.896 57.8487 219.933 57.7003 219.933 57.5333C219.933 57.2179 219.933 56.9025 219.896 56.5871C219.896 56.4016 219.859 56.1975 219.84 55.9934C219.729 54.7133 219.395 53.4517 218.857 52.2829C218.523 51.5593 218.059 50.8914 217.503 50.3349C216.742 49.5928 215.796 49.0547 214.757 48.7579C214.237 48.6095 213.699 48.4981 213.161 48.4425C212.605 48.3868 212.048 48.3497 211.492 48.3868C210.954 48.4054 210.416 48.461 209.878 48.5352C209.098 48.6466 208.338 48.795 207.596 48.9991C206.241 49.3516 204.943 49.871 203.718 50.5389C203.533 50.6503 203.31 50.7245 203.106 50.7616C202.716 50.8358 202.327 50.7801 201.974 50.6131C201.622 50.4462 201.343 50.1864 201.176 49.8525C201.009 49.5185 200.954 49.1475 201.028 48.7764C201.102 48.4239 201.306 48.09 201.603 47.8488C201.733 47.756 201.863 47.6633 201.993 47.5891C203.644 46.6429 205.425 45.9564 207.28 45.5297C208.078 45.3442 208.857 45.1958 209.673 45.0844C210.156 45.0288 210.675 44.9731 211.158 44.936C211.64 44.8989 212.234 44.8804 212.79 44.8618H213.217C213.829 44.8618 214.46 44.936 215.072 45.0288C215.777 45.1216 216.482 45.2885 217.169 45.4926C218.245 45.8266 219.265 46.3275 220.174 46.9954C221.139 47.7004 221.918 48.5909 222.493 49.5928C222.994 50.4647 223.365 51.4109 223.625 52.3757C223.811 53.1178 223.959 53.8413 224.033 54.602C224.145 55.5667 224.2 56.55 224.2 57.5333V67.125H224.182ZM219.933 64.101V62.2086C219.915 62.0602 219.822 61.9117 219.71 61.819C219.581 61.7077 219.432 61.6706 219.284 61.652C219.135 61.652 218.968 61.652 218.801 61.6891C218.653 61.6891 218.486 61.7262 218.338 61.7448L217.428 61.8561C216.872 61.9303 216.315 62.0045 215.759 62.0787C215.202 62.1529 214.608 62.2271 214.052 62.2828C213.477 62.357 212.92 62.4498 212.345 62.524L210.304 62.8023C209.432 62.9321 208.542 63.0806 207.67 63.2846C206.983 63.4331 206.315 63.6371 205.666 63.8783C205.072 64.101 204.497 64.4163 203.959 64.7874C202.994 65.4553 202.308 66.4015 201.974 67.4775C201.77 68.1083 201.659 68.7391 201.64 69.3885V70.2048C201.64 70.7243 201.714 71.2252 201.844 71.7261C202.215 73.1361 203.143 74.3606 204.442 75.1398C205.592 75.8077 206.891 76.1973 208.226 76.253C208.653 76.2715 209.08 76.253 209.506 76.253C210.137 76.253 210.787 76.1787 211.399 76.0303C213.57 75.5851 215.518 74.4719 216.965 72.8764C217.837 71.9116 218.523 70.817 218.987 69.6111C219.562 68.2011 219.859 66.7169 219.877 65.2141V64.0638L219.933 64.101Z" fill="white"/>
<path d="M229.692 62.709V47.5143C229.692 47.2175 229.766 46.9392 229.933 46.698C230.138 46.3826 230.416 46.1043 230.768 45.9188C231.121 45.7518 231.51 45.6591 231.9 45.6776C232.29 45.6776 232.679 45.8261 233.013 46.0116C233.347 46.2157 233.607 46.5125 233.774 46.8465C233.885 47.0876 233.941 47.3288 233.941 47.5886V77.5883C233.941 77.8294 233.941 78.0706 233.885 78.3118C233.811 78.6272 233.644 78.924 233.403 79.1652C233.162 79.4064 232.865 79.5919 232.549 79.6847C232.197 79.8146 231.826 79.8517 231.436 79.796C231.065 79.7404 230.713 79.5919 230.434 79.3508C230.193 79.1838 230.008 78.9612 229.878 78.72C229.748 78.4602 229.674 78.1819 229.692 77.9036V62.709Z" fill="white"/>
<path d="M228.541 38.2197C228.541 37.5333 228.764 36.8654 229.209 36.3274C229.655 35.7893 230.285 35.3997 230.99 35.2328C231.324 35.1585 231.695 35.14 232.029 35.1585C232.679 35.1957 233.309 35.4183 233.829 35.7893C234.348 36.1604 234.738 36.6984 234.942 37.2736C235.128 37.7745 235.165 38.3125 235.053 38.832C234.942 39.3515 234.682 39.8338 234.311 40.242C233.885 40.7244 233.328 41.0769 232.697 41.2253C232.27 41.3366 231.825 41.3737 231.361 41.318C230.916 41.2624 230.489 41.1325 230.1 40.9099C229.71 40.6872 229.376 40.409 229.117 40.0565C228.708 39.5184 228.504 38.8691 228.541 38.2197Z" fill="white"/>
<path d="M250.322 45.6967C250.99 45.4184 251.788 45.1772 252.641 44.9546C253.921 44.6392 255.127 45.6967 254.979 47.0139C254.886 47.8303 254.274 48.4982 253.476 48.6466C252.678 48.8136 251.881 49.0176 251.138 49.3145C249.636 49.7968 248.3 50.6874 247.317 51.8562C246.723 52.5798 246.203 53.3775 245.814 54.2124C245.257 55.3998 244.831 56.6428 244.552 57.9229C244.404 58.5537 244.292 59.1845 244.2 59.8338C244.144 60.242 244.107 60.6316 244.07 61.0398C244.07 61.1325 244.07 61.2253 244.051 61.3181C243.996 61.652 243.977 61.9674 243.996 62.3014V77.7372C243.996 77.9969 243.996 78.2381 243.903 78.4978C243.792 78.8689 243.569 79.1843 243.272 79.444C242.975 79.6852 242.586 79.8522 242.196 79.9079C241.788 79.9635 241.361 79.9079 240.972 79.7594C240.693 79.6481 240.415 79.4626 240.229 79.2585C240.025 79.0359 239.877 78.7761 239.803 78.4793C239.766 78.368 239.747 78.2381 239.747 78.1268V62.8394V47.6076C239.747 47.1624 239.933 46.7357 240.229 46.4017C240.526 46.0678 240.953 45.8266 241.398 45.7524C241.695 45.6782 242.011 45.6782 242.326 45.7524C242.623 45.808 242.92 45.9379 243.179 46.1049C243.439 46.2718 243.643 46.4945 243.792 46.7542C243.94 47.0139 244.014 47.3108 244.014 47.6076V52.2644C244.014 52.4128 244.014 52.5798 244.033 52.7096C244.033 52.7282 244.033 52.7467 244.07 52.7653C244.07 52.7653 244.107 52.7838 244.126 52.7838C244.144 52.7838 244.181 52.7838 244.2 52.7838C244.2 52.7838 244.237 52.7653 244.255 52.7467C244.311 52.6169 244.385 52.5055 244.422 52.3757C244.626 51.8191 244.868 51.2811 245.146 50.743C245.591 49.8525 246.148 49.0176 246.816 48.2755C247.78 47.1809 248.986 46.3089 250.378 45.7524L250.322 45.6967Z" fill="white"/>
<path d="M279.098 54.5833C279.023 53.8227 278.875 53.0991 278.689 52.357C278.448 51.3923 278.059 50.4646 277.558 49.5741C276.983 48.5723 276.185 47.6817 275.239 46.9767C274.348 46.3274 273.328 45.8079 272.233 45.474C271.547 45.2699 270.842 45.1029 270.137 45.0101C267.762 44.6576 263.755 44.5278 260.471 44.6947C259.636 44.7319 258.949 45.3812 258.838 46.2161C258.69 47.2921 259.562 48.2569 260.656 48.1826C262.864 48.0342 265.554 48.1455 268.226 48.4053C268.764 48.4609 269.302 48.5723 269.821 48.7207C270.86 49.0175 271.825 49.5555 272.567 50.2977C273.142 50.8728 273.587 51.5407 273.921 52.2457C274.459 53.4331 274.793 54.6761 274.905 55.9562C274.905 56.1418 274.96 56.3458 274.96 56.5499C274.96 56.8653 274.997 57.1807 274.997 57.4961C274.997 57.6445 274.942 57.7929 274.849 57.9228C274.738 58.0341 274.608 58.1269 274.441 58.1454C274.292 58.1825 274.125 58.2011 273.977 58.2197L272.307 58.4423L270.452 58.702L269.654 58.8133L267.985 59.0545C267.446 59.1287 266.927 59.1844 266.37 59.2586C265.814 59.3328 265.257 59.4256 264.701 59.4998C263.903 59.6111 263.124 59.7224 262.345 59.8708C261.398 60.0564 260.489 60.2976 259.58 60.6129C258.467 60.984 257.409 61.4849 256.426 62.1157C255.554 62.6908 254.756 63.3959 254.126 64.2122C252.994 65.6964 252.363 67.4589 252.27 69.2771C252.233 69.778 252.27 70.2975 252.27 70.8169C252.27 71.6332 252.419 72.431 252.679 73.2102C253.309 75.3623 254.812 77.1805 256.853 78.2937C258.448 79.1471 260.248 79.648 262.085 79.7408C262.456 79.7593 262.808 79.7593 263.198 79.7593C263.94 79.7593 264.701 79.7408 265.443 79.6295C266.241 79.4996 267.038 79.3141 267.799 79.0543C268.838 78.6833 269.84 78.1823 270.749 77.5701C272.14 76.661 273.328 75.5108 274.255 74.1564L274.385 73.9709C274.385 73.9709 274.422 73.9152 274.441 73.8967C274.478 73.8596 274.534 73.841 274.589 73.8225C274.645 73.8225 274.701 73.8225 274.756 73.8225C274.793 73.8225 274.849 73.8596 274.886 73.8967C274.923 73.9338 274.942 73.9709 274.942 74.0265C274.96 74.1564 274.979 74.3048 274.979 74.4347V77.9597C274.979 78.2937 275.09 78.6276 275.276 78.9059C275.554 79.3141 275.981 79.6109 276.463 79.7408C276.945 79.8892 277.465 79.8521 277.947 79.6666C278.244 79.5552 278.522 79.3697 278.745 79.1285C278.968 78.8873 279.116 78.6091 279.19 78.3122C279.227 78.1081 279.265 77.8855 279.246 77.6814V67.0878V57.4775C279.246 56.4943 279.19 55.5295 279.079 54.5462L279.098 54.5833ZM274.979 65.2326C274.979 66.7353 274.663 68.2195 274.088 69.6296C273.625 70.8169 272.938 71.9301 272.066 72.8948C270.619 74.4904 268.671 75.585 266.5 76.0488C265.888 76.1972 265.239 76.2714 264.608 76.2714C264.181 76.2714 263.755 76.29 263.328 76.2714C261.992 76.2158 260.675 75.8262 259.543 75.1583C258.244 74.379 257.317 73.1546 256.946 71.7446C256.797 71.2622 256.723 70.7427 256.742 70.2232V69.4069C256.742 68.7576 256.871 68.1082 257.076 67.496C257.391 66.4014 258.096 65.4552 259.061 64.8059C259.58 64.4348 260.155 64.138 260.768 63.8968C261.417 63.6556 262.085 63.4515 262.771 63.3031C263.625 63.099 264.515 62.932 265.406 62.8207L267.446 62.5424C268.022 62.4682 268.578 62.3755 269.153 62.3012C269.728 62.227 270.304 62.1528 270.86 62.0972C271.417 62.023 271.973 61.9487 272.53 61.8745L273.439 61.7632C273.587 61.7632 273.754 61.7261 273.903 61.7076C274.051 61.7076 274.218 61.6705 274.385 61.6705C274.552 61.6705 274.701 61.7261 274.812 61.8374C274.942 61.9487 275.016 62.0786 275.035 62.227V65.2697L274.979 65.2326Z" fill="white"/>
<path d="M224.182 67.125V77.7186C224.182 77.9227 224.182 78.1453 224.126 78.3494C224.052 78.6463 223.903 78.9431 223.681 79.1657C223.458 79.4069 223.198 79.5924 222.883 79.7038C222.419 79.8893 221.881 79.9078 221.399 79.778C220.916 79.6295 220.49 79.3327 220.211 78.9431C220.026 78.6648 219.915 78.3309 219.915 77.9969V74.4719C219.915 74.342 219.915 74.1936 219.877 74.0637C219.877 74.0266 219.84 73.971 219.822 73.9339C219.785 73.8968 219.748 73.8782 219.692 73.8597C219.636 73.8597 219.581 73.8597 219.525 73.8597C219.469 73.8597 219.414 73.8968 219.377 73.9339C219.358 73.9339 219.339 73.971 219.321 74.0081L219.191 74.1936C218.263 75.548 217.076 76.6982 215.685 77.6073C214.775 78.2195 213.774 78.7205 212.735 79.0915C211.974 79.3513 211.176 79.5553 210.378 79.6667C209.636 79.778 208.894 79.8151 208.134 79.7965C207.763 79.7965 207.391 79.7965 207.02 79.778C205.184 79.6852 203.384 79.1843 201.789 78.3309C199.748 77.2177 198.226 75.3995 197.614 73.2474C197.354 72.4682 197.225 71.6704 197.206 70.8541C197.206 70.3532 197.206 69.8337 197.206 69.3143C197.299 67.4961 197.93 65.7336 199.061 64.2494C199.692 63.4331 200.471 62.7281 201.362 62.1529C202.345 61.5221 203.403 61.0212 204.516 60.6502C205.406 60.3348 206.334 60.0936 207.28 59.908C208.059 59.7596 208.857 59.6298 209.636 59.537C210.193 59.4628 210.75 59.3886 211.306 59.2958C211.863 59.2216 212.382 59.1474 212.92 59.0917L214.59 58.8505L215.388 58.7392L217.243 58.4795L218.913 58.2569C219.061 58.2383 219.228 58.2198 219.377 58.1826C219.525 58.1641 219.673 58.0713 219.785 57.96C219.896 57.8487 219.933 57.7003 219.933 57.5333C219.933 57.2179 219.933 56.9025 219.896 56.5871C219.896 56.4016 219.859 56.1975 219.84 55.9934C219.729 54.7133 219.395 53.4517 218.857 52.2829C218.523 51.5593 218.059 50.8914 217.503 50.3349C216.742 49.5928 215.796 49.0547 214.757 48.7579C214.237 48.6095 213.699 48.4981 213.161 48.4425C212.605 48.3868 212.048 48.3497 211.492 48.3868C210.954 48.4054 210.416 48.461 209.878 48.5352C209.098 48.6466 208.338 48.795 207.596 48.9991C206.241 49.3516 204.943 49.871 203.718 50.5389C203.533 50.6503 203.31 50.7245 203.106 50.7616C202.716 50.8358 202.327 50.7801 201.974 50.6131C201.622 50.4462 201.343 50.1864 201.176 49.8525C201.009 49.5185 200.954 49.1475 201.028 48.7764C201.102 48.4239 201.306 48.09 201.603 47.8488C201.733 47.756 201.863 47.6633 201.993 47.5891C203.644 46.6429 205.425 45.9564 207.28 45.5297C208.078 45.3442 208.857 45.1958 209.673 45.0844C210.156 45.0288 210.675 44.9731 211.158 44.936C211.64 44.8989 212.234 44.8804 212.79 44.8618H213.217C213.829 44.8618 214.46 44.936 215.072 45.0288C215.777 45.1216 216.482 45.2885 217.169 45.4926C218.245 45.8266 219.265 46.3275 220.174 46.9954C221.139 47.7004 221.918 48.5909 222.493 49.5928C222.994 50.4647 223.365 51.4109 223.625 52.3757C223.811 53.1178 223.959 53.8413 224.033 54.602C224.145 55.5667 224.2 56.55 224.2 57.5333V67.125H224.182ZM219.933 64.101V62.2086C219.915 62.0602 219.822 61.9117 219.71 61.819C219.581 61.7077 219.432 61.6706 219.284 61.652C219.135 61.652 218.968 61.652 218.801 61.6891C218.653 61.6891 218.486 61.7262 218.338 61.7448L217.428 61.8561C216.872 61.9303 216.315 62.0045 215.759 62.0787C215.202 62.1529 214.608 62.2271 214.052 62.2828C213.477 62.357 212.92 62.4498 212.345 62.524L210.304 62.8023C209.432 62.9321 208.542 63.0806 207.67 63.2846C206.983 63.4331 206.315 63.6371 205.666 63.8783C205.072 64.101 204.497 64.4163 203.959 64.7874C202.994 65.4553 202.308 66.4015 201.974 67.4775C201.77 68.1083 201.659 68.7391 201.64 69.3885V70.2048C201.64 70.7243 201.714 71.2252 201.844 71.7261C202.215 73.1361 203.143 74.3606 204.442 75.1398C205.592 75.8077 206.891 76.1973 208.226 76.253C208.653 76.2715 209.08 76.253 209.506 76.253C210.137 76.253 210.787 76.1787 211.399 76.0303C213.57 75.5851 215.518 74.4719 216.965 72.8764C217.837 71.9116 218.523 70.817 218.987 69.6111C219.562 68.2011 219.859 66.7169 219.877 65.2141V64.0638L219.933 64.101Z" fill="white"/>
<path d="M229.692 62.709V47.5143C229.692 47.2175 229.766 46.9392 229.933 46.698C230.138 46.3826 230.416 46.1043 230.768 45.9188C231.121 45.7518 231.51 45.6591 231.9 45.6776C232.29 45.6776 232.679 45.8261 233.013 46.0116C233.347 46.2157 233.607 46.5125 233.774 46.8465C233.885 47.0876 233.941 47.3288 233.941 47.5886V77.5883C233.941 77.8294 233.941 78.0706 233.885 78.3118C233.811 78.6272 233.644 78.924 233.403 79.1652C233.162 79.4064 232.865 79.5919 232.549 79.6847C232.197 79.8146 231.826 79.8517 231.436 79.796C231.065 79.7404 230.713 79.5919 230.434 79.3508C230.193 79.1838 230.008 78.9612 229.878 78.72C229.748 78.4602 229.674 78.1819 229.692 77.9036V62.709Z" fill="white"/>
<path d="M228.541 38.2197C228.541 37.5333 228.764 36.8654 229.209 36.3274C229.655 35.7893 230.285 35.3997 230.99 35.2328C231.324 35.1585 231.695 35.14 232.029 35.1585C232.679 35.1957 233.309 35.4183 233.829 35.7893C234.348 36.1604 234.738 36.6984 234.942 37.2736C235.128 37.7745 235.165 38.3125 235.053 38.832C234.942 39.3515 234.682 39.8338 234.311 40.242C233.885 40.7244 233.328 41.0769 232.697 41.2253C232.27 41.3366 231.825 41.3737 231.361 41.318C230.916 41.2624 230.489 41.1325 230.1 40.9099C229.71 40.6872 229.376 40.409 229.117 40.0565C228.708 39.5184 228.504 38.8691 228.541 38.2197Z" fill="white"/>
<path d="M250.322 45.6967C250.99 45.4184 251.788 45.1772 252.641 44.9546C253.921 44.6392 255.127 45.6967 254.979 47.0139C254.886 47.8303 254.274 48.4982 253.476 48.6466C252.678 48.8136 251.881 49.0176 251.138 49.3145C249.636 49.7968 248.3 50.6874 247.317 51.8562C246.723 52.5798 246.203 53.3775 245.814 54.2124C245.257 55.3998 244.831 56.6428 244.552 57.9229C244.404 58.5537 244.292 59.1845 244.2 59.8338C244.144 60.242 244.107 60.6316 244.07 61.0398C244.07 61.1325 244.07 61.2253 244.051 61.3181C243.996 61.652 243.977 61.9674 243.996 62.3014V77.7372C243.996 77.9969 243.996 78.2381 243.903 78.4978C243.792 78.8689 243.569 79.1843 243.272 79.444C242.975 79.6852 242.586 79.8522 242.196 79.9079C241.788 79.9635 241.361 79.9079 240.972 79.7594C240.693 79.6481 240.415 79.4626 240.229 79.2585C240.025 79.0359 239.877 78.7761 239.803 78.4793C239.766 78.368 239.747 78.2381 239.747 78.1268V62.8394V47.6076C239.747 47.1624 239.933 46.7357 240.229 46.4017C240.526 46.0678 240.953 45.8266 241.398 45.7524C241.695 45.6782 242.011 45.6782 242.326 45.7524C242.623 45.808 242.92 45.9379 243.179 46.1049C243.439 46.2718 243.643 46.4945 243.792 46.7542C243.94 47.0139 244.014 47.3108 244.014 47.6076V52.2644C244.014 52.4128 244.014 52.5798 244.033 52.7096C244.033 52.7282 244.033 52.7467 244.07 52.7653C244.07 52.7653 244.107 52.7838 244.126 52.7838C244.144 52.7838 244.181 52.7838 244.2 52.7838C244.2 52.7838 244.237 52.7653 244.255 52.7467C244.311 52.6169 244.385 52.5055 244.422 52.3757C244.626 51.8191 244.868 51.2811 245.146 50.743C245.591 49.8525 246.148 49.0176 246.816 48.2755C247.78 47.1809 248.986 46.3089 250.378 45.7524L250.322 45.6967Z" fill="white"/>
<path d="M279.098 54.5833C279.023 53.8227 278.875 53.0991 278.689 52.357C278.448 51.3923 278.059 50.4646 277.558 49.5741C276.983 48.5723 276.185 47.6817 275.239 46.9767C274.348 46.3274 273.328 45.8079 272.233 45.474C271.547 45.2699 270.842 45.1029 270.137 45.0101C267.762 44.6576 263.755 44.5278 260.471 44.6947C259.636 44.7319 258.949 45.3812 258.838 46.2161C258.69 47.2921 259.562 48.2569 260.656 48.1826C262.864 48.0342 265.554 48.1455 268.226 48.4053C268.764 48.4609 269.302 48.5723 269.821 48.7207C270.86 49.0175 271.825 49.5555 272.567 50.2977C273.142 50.8728 273.587 51.5407 273.921 52.2457C274.459 53.4331 274.793 54.6761 274.905 55.9562C274.905 56.1418 274.96 56.3458 274.96 56.5499C274.96 56.8653 274.997 57.1807 274.997 57.4961C274.997 57.6445 274.942 57.7929 274.849 57.9228C274.738 58.0341 274.608 58.1269 274.441 58.1454C274.292 58.1825 274.125 58.2011 273.977 58.2197L272.307 58.4423L270.452 58.702L269.654 58.8133L267.985 59.0545C267.446 59.1287 266.927 59.1844 266.37 59.2586C265.814 59.3328 265.257 59.4256 264.701 59.4998C263.903 59.6111 263.124 59.7224 262.345 59.8708C261.398 60.0564 260.489 60.2976 259.58 60.6129C258.467 60.984 257.409 61.4849 256.426 62.1157C255.554 62.6908 254.756 63.3959 254.126 64.2122C252.994 65.6964 252.363 67.4589 252.27 69.2771C252.233 69.778 252.27 70.2975 252.27 70.8169C252.27 71.6332 252.419 72.431 252.679 73.2102C253.309 75.3623 254.812 77.1805 256.853 78.2937C258.448 79.1471 260.248 79.648 262.085 79.7408C262.456 79.7593 262.808 79.7593 263.198 79.7593C263.94 79.7593 264.701 79.7408 265.443 79.6295C266.241 79.4996 267.038 79.3141 267.799 79.0543C268.838 78.6833 269.84 78.1823 270.749 77.5701C272.14 76.661 273.328 75.5108 274.255 74.1564L274.385 73.9709C274.385 73.9709 274.422 73.9152 274.441 73.8967C274.478 73.8596 274.534 73.841 274.589 73.8225C274.645 73.8225 274.701 73.8225 274.756 73.8225C274.793 73.8225 274.849 73.8596 274.886 73.8967C274.923 73.9338 274.942 73.9709 274.942 74.0265C274.96 74.1564 274.979 74.3048 274.979 74.4347V77.9597C274.979 78.2937 275.09 78.6276 275.276 78.9059C275.554 79.3141 275.981 79.6109 276.463 79.7408C276.945 79.8892 277.465 79.8521 277.947 79.6666C278.244 79.5552 278.522 79.3697 278.745 79.1285C278.968 78.8873 279.116 78.6091 279.19 78.3122C279.227 78.1081 279.265 77.8855 279.246 77.6814V67.0878V57.4775C279.246 56.4943 279.19 55.5295 279.079 54.5462L279.098 54.5833ZM274.979 65.2326C274.979 66.7353 274.663 68.2195 274.088 69.6296C273.625 70.8169 272.938 71.9301 272.066 72.8948C270.619 74.4904 268.671 75.585 266.5 76.0488C265.888 76.1972 265.239 76.2714 264.608 76.2714C264.181 76.2714 263.755 76.29 263.328 76.2714C261.992 76.2158 260.675 75.8262 259.543 75.1583C258.244 74.379 257.317 73.1546 256.946 71.7446C256.797 71.2622 256.723 70.7427 256.742 70.2232V69.4069C256.742 68.7576 256.871 68.1082 257.076 67.496C257.391 66.4014 258.096 65.4552 259.061 64.8059C259.58 64.4348 260.155 64.138 260.768 63.8968C261.417 63.6556 262.085 63.4515 262.771 63.3031C263.625 63.099 264.515 62.932 265.406 62.8207L267.446 62.5424C268.022 62.4682 268.578 62.3755 269.153 62.3012C269.728 62.227 270.304 62.1528 270.86 62.0972C271.417 62.023 271.973 61.9487 272.53 61.8745L273.439 61.7632C273.587 61.7632 273.754 61.7261 273.903 61.7076C274.051 61.7076 274.218 61.6705 274.385 61.6705C274.552 61.6705 274.701 61.7261 274.812 61.8374C274.942 61.9487 275.016 62.0786 275.035 62.227V65.2697L274.979 65.2326Z" fill="white"/>
</g>
<path d="M190.027 61.0581C189.693 55.7521 187.374 49.0174 182.977 46.5685C180.862 45.3997 178.598 45.3811 176.428 46.5314C174.61 47.4961 173.2 49.8152 171.845 52.4868C171.233 53.7298 170.862 55.0099 171.289 56.2715C171.734 57.5702 172.495 58.6277 173.311 56.9023C175.018 53.4144 176.725 50.5944 178.172 49.8337C179.211 49.2772 180.157 49.2772 181.14 49.8337C183.775 51.2994 185.945 56.1602 186.279 61.2993C186.669 67.4588 184.981 73.5255 182.272 75.7147C181.307 76.494 180.324 76.698 179.192 76.3826C178.877 76.2899 176.502 76.1043 173.552 69.5924C171.975 66.123 171.437 64.2306 170.843 62.5794L169.211 57.3476C168.394 54.6203 167.3 51.0397 165.704 46.5128C161.66 34.9174 156.224 29.1846 149.489 29.8711C144.74 30.3534 140.992 33.2291 137.523 37.8302C133.924 42.6353 131.697 49.2586 130.974 56.8096C129.415 73.0803 135.501 87.236 144.833 89.0541C145.315 89.1469 145.797 89.2025 146.298 89.2025C150.918 89.2025 156.317 85.1581 162.328 77.1247C165.203 73.3029 167.467 69.3697 168.821 66.828C169.285 68.071 169.86 69.5367 170.509 71.0766C172.903 76.7351 175.815 79.2954 178.19 79.9633C178.877 80.1488 179.545 80.2416 180.194 80.2416C181.789 80.2416 183.292 79.685 184.647 78.609C188.357 75.6405 190.509 68.5905 190.045 61.0581H190.027ZM159.304 74.917C151.808 84.8983 147.56 85.121 145.649 84.7499C142.328 84.1006 139.155 81.5032 137.096 76.5125C134.87 71.0951 134.016 64.2306 134.703 57.1621C135.371 50.2976 137.337 44.305 140.528 40.0565C143.33 36.3088 146.91 33.4703 150.584 33.7486C154.907 34.1011 158.487 38.4238 162.216 47.8115C164.48 53.5072 166.354 59.3513 167.17 62.0414C167.151 62.0785 167.114 62.1527 167.096 62.2084C167.059 62.264 163.812 68.8688 159.266 74.8984L159.304 74.917Z" fill="white"/>
</g>
<defs>
<clipPath id="clip0_7813_7123">
<rect width="148.533" height="59.3686" fill="white" transform="translate(130.733 29.8154)"/>
</clipPath>
</defs>
</svg>
